<svg width="47" height="25" xmlns="http://www.w3.org/2000/svg">
    <path d="M46.07 17.06H33.874a.933.933 0 0 1-.945-.934V8.874a.933.933 0 0 1 .945-.933H46.07a.571.571 0 0 0 .572-.572V.571A.571.571 0 0 0 46.07 0H30.107a.933.933 0 0 0-.653.28L25 4.944 20.534.28a.91.91 0 0 0-.653-.28H5.107a.933.933 0 0 0-.653.28L.244 4.71A.968.968 0 0 0 0 5.34V24.43c0 .315.256.571.571.571H7.37a.571.571 0 0 0 .572-.571V9.002c0-.515.417-.933.933-.933h7.252c.516 0 .933.418.933.933v15.427c0 .315.256.571.572.571h6.856a.571.571 0 0 0 .571-.571v-4.385l4.455 4.664a.933.933 0 0 0 .653.28H46.07a.571.571 0 0 0 .572-.571v-6.786a.571.571 0 0 0-.572-.572z" fill="#1F3263" fill-rule="nonzero"/>
</svg>
