<svg width="30" height="30" xmlns="http://www.w3.org/2000/svg" xmlns:xlink="http://www.w3.org/1999/xlink">
    <defs>
        <circle id="a" cx="14" cy="14" r="14"/>
    </defs>
    <g fill="none" fill-rule="evenodd">
        <use fill="#0ABC0A" fill-rule="nonzero" opacity=".8" xlink:href="#a" transform="translate(1 1)"/>
        <path d="M25 14.091C25 9.63 20.514 6 15 6 9.487 6 5 9.63 5 14.091c0 4 3.558 7.35 8.363 7.983.326.07.77.214.881.491.1.252.066.647.033.902l-.143.854c-.044.251-.201.985.866.537 1.067-.448 5.759-3.381 7.857-5.789C24.306 17.485 25 15.877 25 14.091" fill="#FFF"/>
        <path d="M12.968 11.935h-.701a.194.194 0 0 0-.195.194v4.344c0 .108.087.194.195.194h.701a.194.194 0 0 0 .195-.194V12.13a.194.194 0 0 0-.195-.194M17.796 11.935h-.701a.194.194 0 0 0-.195.194v2.581l-1.997-2.689a.213.213 0 0 0-.015-.02h-.001l-.012-.012-.003-.004-.011-.008-.005-.004-.01-.007a.03.03 0 0 0-.006-.004l-.01-.006-.007-.003a.551.551 0 0 0-.01-.004l-.007-.002-.012-.004a.06.06 0 0 0-.006-.002.089.089 0 0 0-.012-.002l-.008-.001-.01-.002h-.718a.194.194 0 0 0-.195.193v4.344c0 .108.087.194.195.194h.701a.194.194 0 0 0 .195-.194v-2.58l2 2.692c.013.02.03.036.049.048l.002.002.012.007.005.003.01.005c.003 0 .006.002.009.004l.006.002.013.004h.003a.188.188 0 0 0 .05.007h.701a.194.194 0 0 0 .195-.194V12.13a.194.194 0 0 0-.195-.194M11.277 15.58H9.371v-3.45a.194.194 0 0 0-.194-.195h-.702a.195.195 0 0 0-.195.194v4.344c0 .053.021.1.055.134 0 .001.001.003.003.003l.003.003a.193.193 0 0 0 .134.054h2.802a.194.194 0 0 0 .195-.194v-.7a.194.194 0 0 0-.195-.194M21.67 13.023a.194.194 0 0 0 .194-.194v-.7a.194.194 0 0 0-.194-.194h-2.802c-.053 0-.1.021-.136.055l-.002.002-.003.003a.194.194 0 0 0-.054.134v4.344c0 .052.02.1.054.134l.003.004.003.002a.194.194 0 0 0 .134.054h2.803a.194.194 0 0 0 .194-.194v-.7a.194.194 0 0 0-.194-.194h-1.906v-.734h1.906a.194.194 0 0 0 .194-.194v-.7a.194.194 0 0 0-.194-.194h-1.906v-.734h1.906z" fill="#3BC93B"/>
    </g>
</svg>
