<svg width="30" height="30" xmlns="http://www.w3.org/2000/svg">
    <path d="M26.252 10.48c0-.252-.004-.502-.016-.75A11.59 11.59 0 0 0 29 6.722c-.993.462-2.06.774-3.181.914a5.786 5.786 0 0 0 2.436-3.212 10.796 10.796 0 0 1-3.518 1.41C23.727 4.705 22.287 4 20.694 4c-3.06 0-5.54 2.6-5.54 5.806 0 .456.048.899.143 1.324-4.604-.243-8.686-2.553-11.418-6.067a6 6 0 0 0-.75 2.919c0 2.014.978 3.792 2.465 4.833a5.306 5.306 0 0 1-2.509-.727l-.001.074c0 2.813 1.91 5.16 4.444 5.693a5.316 5.316 0 0 1-2.502.1c.706 2.306 2.75 3.985 5.175 4.032-1.896 1.557-4.284 2.485-6.88 2.485-.447 0-.887-.026-1.321-.08C4.452 26.039 7.362 27 10.491 27c10.19 0 15.761-8.848 15.761-16.52z" fill="#26A5F2" fill-rule="evenodd"/>
</svg>
