<svg width="30" height="30" xmlns="http://www.w3.org/2000/svg">
    <g fill-rule="nonzero" fill="none">
        <path d="M11.013 2h7.974C26.267 2 28 3.733 28 11.013v7.974C28 26.267 26.267 28 18.987 28h-7.974C3.733 28 2 26.267 2 18.987v-7.974C2 3.733 3.733 2 11.013 2z" fill="#2787F5"/>
        <path d="M23.292 10.957c.12-.401 0-.697-.573-.697h-1.896c-.482 0-.704.255-.825.537 0 0-.964 2.35-2.33 3.876-.442.442-.642.582-.883.582-.121 0-.295-.14-.295-.542v-3.756c0-.482-.14-.697-.542-.697h-2.98c-.3 0-.482.224-.482.436 0 .457.683.563.754 1.848v2.792c0 .612-.11.723-.352.723-.643 0-2.206-2.36-3.133-5.062-.182-.525-.364-.737-.849-.737H7.01c-.541 0-.65.255-.65.537 0 .502.643 2.992 2.993 6.286 1.567 2.25 3.774 3.47 5.782 3.47 1.206 0 1.355-.272 1.355-.738v-1.7c0-.542.114-.65.495-.65.282 0 .764.14 1.888 1.225 1.286 1.285 1.498 1.862 2.22 1.862h1.897c.541 0 .812-.27.656-.805-.171-.533-.785-1.306-1.6-2.222-.441-.522-1.104-1.084-1.305-1.366-.28-.361-.2-.522 0-.843 0 0 2.31-3.254 2.551-4.359z" fill="#FFF"/>
    </g>
</svg>
