<svg xmlns="http://www.w3.org/2000/svg" width="108" height="26" viewBox="0 0 108 26">
    <g fill="none" fill-rule="evenodd">
        <g fill="#004C98" fill-rule="nonzero">
            <g>
                <g transform="translate(-507.000000, -427.000000) translate(461.000000, 105.000000) translate(46.000000, 322.000000)">
                    <path d="M73.312 19.641h3.604c.08 0 .157-.03.213-.087.057-.057.088-.134.088-.214v-8.21c0-.132.053-.259.147-.352.093-.094.22-.146.352-.145h3.84c.274 0 .495.223.496.498v8.212c.002.164.133.296.296.298h3.604c.166 0 .3-.134.3-.3v-2.332l2.36 2.491c.09.095.215.148.346.148h8.457c.166 0 .3-.134.3-.3v-3.624c0-.08-.032-.156-.088-.212-.056-.056-.133-.088-.212-.087H90.95c-.273-.001-.495-.223-.496-.498v-3.854c.001-.275.223-.497.496-.498h6.465c.166 0 .3-.135.3-.3V6.656c-.002-.165-.135-.298-.3-.298h-8.457c-.13-.002-.255.049-.347.141l-2.36 2.494L83.888 6.5c-.091-.092-.216-.143-.346-.141h-7.825c-.13-.003-.256.048-.348.141l-2.227 2.361c-.084.09-.131.208-.131.33v10.152c.002.165.135.298.3.298z"/>
                    <rect width="5.037" height="3.636" x="11.757" y="9.534" rx=".339"/>
                    <path d="M41.455 9.3c-.018-.06-.072-.1-.134-.1-.062 0-.116.04-.134.1l-1.408 4.48c-.023.065-.013.138.027.194.04.056.105.09.174.089h2.68c.068 0 .133-.033.173-.09.04-.055.051-.128.029-.193L41.455 9.3z"/>
                    <path d="M6.758 0L0 6.783V26h100.242L107 19.217V0H6.758zm13.345 14.033c0 .187-.074.366-.205.499l-1.595 1.608c-.132.133-.312.207-.499.207H12.04c-.156 0-.282.127-.282.283v2.729c0 .156-.126.282-.281.282H8.447c-.155 0-.281-.126-.281-.282V8.67c0-.187.073-.367.205-.5l1.597-1.608c.132-.13.31-.204.497-.203h7.332c.19-.003.371.07.506.203l1.602 1.608c.132.133.206.313.205.5l-.007 5.363zm12.671 2.813l-.871 2.381c-.09.253-.327.423-.594.424h-8.524c-.155 0-.281-.126-.281-.282V6.64c0-.156.126-.282.281-.282h2.894c.155 0 .281.126.281.282v9.489c0 .187.151.339.338.339h6.205c.091 0 .177.045.23.12.052.075.065.17.034.257h.007zm15.446 2.795h-3.308c-.123 0-.23-.08-.268-.198l-.67-2.128c-.037-.117-.146-.198-.269-.197h-4.772c-.124 0-.232.08-.27.197l-.668 2.128c-.036.116-.142.196-.263.198h-3.31c-.069 0-.133-.033-.172-.09-.04-.056-.05-.128-.027-.192L38.88 6.633c.063-.167.223-.276.4-.274h4.083c.179 0 .338.113.397.282L48.42 19.36c.023.064.013.136-.027.192-.039.057-.103.09-.172.09zM61.003 6.672l-5.001 8.448c-.065.109-.099.233-.099.36v3.879c0 .156-.126.282-.281.282h-3.18c-.155 0-.28-.126-.28-.282v-3.88c0-.127-.035-.252-.1-.36l-5-8.444c-.037-.065-.037-.145 0-.21.038-.065.107-.106.181-.106h3.38c.128 0 .246.07.308.182l2.979 5.426c.024.045.072.073.123.073.051 0 .098-.028.123-.073l2.978-5.426c.062-.113.18-.183.308-.182h3.38c.074 0 .144.04.181.105.038.066.038.146 0 .211v-.003zm44.87 12.078l-6.097 6.12h-34.45V1.13h40.548v17.62z"/>
                </g>
            </g>
        </g>
    </g>
</svg>
