<svg xmlns="http://www.w3.org/2000/svg" width="158" height="38" viewBox="0 0 158 38">
    <g fill="none" fill-rule="evenodd">
        <g fill="#004C98" fill-rule="nonzero">
            <g>
                <g transform="translate(-482.000000, -161.000000) translate(461.000000, 105.000000) translate(21.000000, 56.000000)">
                    <path d="M107.57 28.707h5.288c.117 0 .23-.046.313-.129.083-.082.13-.194.13-.311v-12c0-.193.076-.378.214-.515.137-.136.323-.212.517-.211h5.635c.401 0 .726.326.727.727V28.27c.002.239.195.432.434.436h5.288c.243 0 .44-.197.44-.44v-3.408l3.463 3.641c.132.139.316.217.508.217h12.41c.242 0 .44-.197.44-.44v-5.295c0-.117-.047-.228-.13-.31-.082-.083-.194-.129-.31-.128h-9.487c-.401-.001-.726-.326-.727-.727v-5.634c.001-.401.326-.726.727-.727h9.486c.243 0 .44-.197.44-.44V9.73c-.002-.241-.198-.436-.44-.436h-12.41c-.19-.002-.373.072-.507.207l-3.465 3.645L123.09 9.5c-.134-.135-.318-.21-.508-.207H111.1c-.19-.003-.375.072-.51.207l-3.268 3.451c-.124.13-.193.303-.192.483v14.837c.002.241.198.436.44.436z"/>
                    <rect width="7.391" height="5.314" x="17.251" y="13.934" rx=".496"/>
                    <path d="M60.827 13.591c-.027-.086-.107-.145-.197-.145-.09 0-.17.059-.197.145l-2.066 6.549c-.034.095-.019.201.04.283.059.083.154.131.255.13h3.931c.102 0 .197-.047.256-.13.06-.082.075-.187.042-.283l-2.064-6.549z"/>
                    <path d="M9.916 0L0 9.913V38h147.084L157 28.087V0H9.916zm19.581 20.51c0 .273-.108.535-.301.729l-2.34 2.35c-.194.194-.458.303-.732.303h-8.46c-.228 0-.413.185-.413.414v3.987c0 .229-.185.414-.413.414h-4.443c-.228 0-.413-.185-.413-.414v-15.62c0-.275.108-.538.301-.732l2.343-2.35c.194-.192.456-.299.729-.298h10.759c.277-.004.544.103.741.298l2.351 2.35c.194.194.302.457.302.731l-.01 7.838zm18.593 4.112l-1.28 3.48c-.13.37-.479.617-.871.619H33.433c-.228 0-.413-.185-.413-.413V9.707c0-.229.185-.414.413-.414h4.245c.228 0 .413.185.413.414v13.867c0 .274.222.496.496.496h9.104c.134 0 .26.066.337.175.077.11.096.25.051.377h.01zm22.663 4.085H65.9c-.18-.001-.339-.118-.393-.29l-.983-3.11c-.054-.172-.214-.29-.395-.289h-7.003c-.18 0-.34.117-.394.29l-.982 3.11c-.053.169-.208.285-.386.289h-4.857c-.1 0-.194-.05-.252-.132-.058-.082-.072-.187-.039-.282L57.05 9.694c.092-.243.326-.403.587-.4h5.99c.262 0 .496.166.583.413l6.836 18.586c.033.095.019.2-.04.282-.057.082-.151.131-.252.132zM89.51 9.752L82.17 22.098c-.095.16-.145.341-.145.526v5.67c0 .228-.185.413-.413.413H76.95c-.229 0-.414-.185-.414-.414v-5.67c0-.186-.05-.368-.144-.527l-7.338-12.34c-.054-.095-.054-.212.001-.307s.156-.154.266-.156h4.958c.188 0 .361.102.452.267l4.371 7.93c.037.066.106.107.18.107.076 0 .145-.04.182-.107l4.369-7.93c.09-.165.264-.267.452-.267h4.958c.11 0 .212.06.267.155.055.095.055.213 0 .308v-.004zm65.838 17.651l-8.947 8.945H95.853V1.652h59.494v25.751z"/>
                </g>
            </g>
        </g>
    </g>
</svg>
