<svg width="30" height="30" xmlns="http://www.w3.org/2000/svg" xmlns:xlink="http://www.w3.org/1999/xlink">
    <defs>
        <path id="a" d="M0 0h27.998v27.829H0z"/>
    </defs>
    <g transform="translate(1 1)" fill="none" fill-rule="evenodd">
        <rect fill="#FFF" width="28" height="28" rx="14"/>
        <g transform="translate(.002 .001)">
            <mask id="b" fill="#fff">
                <use xlink:href="#a"/>
            </mask>
            <path d="M17.099 5.468c-3.198 0-5.288 1.938-5.288 5.447v3.084H8.256v4.047h3.555v9.783C5.118 26.779-.002 20.987-.002 13.999c0-7.732 6.268-14 14-14s14 6.268 14 14c0 6.988-5.12 12.78-11.812 13.83v-9.783h3.262l.62-4.047h-3.882v-2.626c0-1.107.542-2.187 2.281-2.187h1.766V5.741s-1.602-.273-3.134-.273z" fill="#1877F2" mask="url(#b)"/>
        </g>
    </g>
</svg>
