<svg width="30" height="30" xmlns="http://www.w3.org/2000/svg" xmlns:xlink="http://www.w3.org/1999/xlink">
    <defs>
        <path d="M12.245 2.66c0 3.958-1.392 7.29-3.803 9.554H4.319V8.952A5.988 5.988 0 0 0 6.865 5.03H0V0h12.013c.15.85.232 1.737.232 2.66z" id="a"/>
        <path d="M11.398 10.53c-4.986 0-9.3-2.913-11.398-7.162V0h4.261c1.003 3.073 3.815 5.36 7.137 5.36 1.717 0 3.178-.461 4.32-1.241L19.84 7.38c-2.11 1.986-4.998 3.15-8.442 3.15z" id="c"/>
        <path d="m5.618 8.308-4.261 3.368A13.199 13.199 0 0 1 0 5.838C0 3.74.493 1.755 1.357 0h4.261v3.368a7.95 7.95 0 0 0-.4 2.47c0 .857.145 1.69.4 2.47z" id="e"/>
        <path d="M11.398 5.17c-3.322 0-6.134 2.287-7.137 5.36L0 7.162C2.099 2.913 6.412 0 11.398 0c3.439 0 6.326 1.288 8.535 3.386l-3.659 3.729c-1.322-1.289-3.003-1.945-4.876-1.945z" id="g"/>
    </defs>
    <g fill="none" fill-rule="evenodd">
        <g transform="translate(14.755 12.636)">
            <mask id="b" fill="#fff">
                <use xlink:href="#a"/>
            </mask>
            <path fill="#4285F4" mask="url(#b)" d="M-7.086 19.436H19.33V-7.222H-7.086z"/>
        </g>
        <g transform="translate(3.357 17.47)">
            <mask id="d" fill="#fff">
                <use xlink:href="#c"/>
            </mask>
            <path fill="#34A853" mask="url(#d)" d="M-7.086 17.752h34.012V-7.222H-7.086z"/>
        </g>
        <g transform="translate(2 9.162)">
            <mask id="f" fill="#fff">
                <use xlink:href="#e"/>
            </mask>
            <path fill="#FBBC05" mask="url(#f)" d="M-7.086 18.899h19.79V-7.222h-19.79z"/>
        </g>
        <g transform="translate(3.357 2)">
            <mask id="h" fill="#fff">
                <use xlink:href="#g"/>
            </mask>
            <path fill="#EA4335" mask="url(#h)" d="M-7.086 17.752h34.105V-7.222H-7.086z"/>
        </g>
    </g>
</svg>
